<svg xmlns:svg="http://www.w3.org/2000/svg" xmlns="http://www.w3.org/2000/svg" version="1.1" width="600" height="600"><g transform="translate(-1002.0055,349.64338)"><circle cx="-895" cy="365" r="50" transform="matrix(6,0,0,6,6672.0055,-2239.6313)" fill="#cac5c0"/><path d="m1514 3.9h-216l79.1-56.3c-29.4-23.3-63.4-35-101.9-35-19.3 0-32.5 3.7-39.5 11-7.1 7.4-10.7 20.7-10.7 39.9 0 53.2 27.4 110 82.1 170.4l-62.3 63.1c-72.5-88.2-108.8-167.1-108.8-236.5 0-41.6 12.5-74.7 37.6-99.3 25.1-24.6 58.5-36.9 100-36.9 50.7 0 106 19.3 165.8 57.8l46.4-79.1 28.2 200.8z" fill="#0d0f0f"/></g></svg>
